<svg width="18" height="14" viewBox="0 0 18 14" fill="none" xmlns="http://www.w3.org/2000/svg">
<path fill-rule="evenodd" clip-rule="evenodd" d="M10.2905 13.7076C10.1005 13.5076 10.0005 13.2576 10.0005 12.9976C10.0005 12.7376 10.1005 12.4876 10.2905 12.2876L14.5905 7.99762L1.00055 7.99762C0.450549 7.99762 0.000547739 7.54762 0.000547715 6.99762C0.000547691 6.44762 0.450548 5.99762 1.00055 5.99762L14.5905 5.99762L10.2905 1.70762C9.90055 1.31762 9.90055 0.677618 10.2905 0.287618C10.6805 -0.102382 11.3205 -0.102383 11.7105 0.287617L17.7105 6.28762C17.8005 6.37762 17.8705 6.48762 17.9205 6.60762C17.9405 6.65762 17.9605 6.69762 17.9605 6.74762C18.0105 6.90762 18.0105 7.08762 17.9605 7.24762C17.9605 7.29762 17.9405 7.33762 17.9205 7.38762C17.8705 7.50762 17.8005 7.61762 17.7105 7.70762L11.7105 13.7076C11.3205 14.0976 10.6805 14.0976 10.2905 13.7076Z" />
</svg>
